# xmcd CD database file
#
# Track frame offsets:
#	150
#	11935
#	25970
#	38647
#	52667
#	67315
#	82807
#	97492
#	112210
#	125115
#	139202
#	150915
#	162752
#	175515
#	185895
#	197492
#
# Disc length: 2793 seconds
#
# Revision: 3
# Processed by: cddbd v1.4PL0 Copyright (c) Steve Scherf et al.
# Submitted via: CDex 1.51
#
DISCID=dd0ae710
DTITLE=Ernest Tubb - C.M. Hall of Fame Series
DYEAR=1991
DGENRE=Country
TTITLE0=Walking the Floor Over You
TTITLE1=Our Baby's Book
TTITLE2=You Nearly Lose Your Mind
TTITLE3=Tomorrow Never Comes
TTITLE4=Soldier's Last Letter
TTITLE5=It's Been So Long Darling
TTITLE6=Seaman's Blues
TTITLE7=Forever Is Ending Today
TTITLE8=Have You Ever Been Lonely
TTITLE9=Letters Have No Arms
TTITLE10=Throw Your Love My Way
TTITLE11=Fortunes In Memories
TTITLE12=Love Lifted Me
TTITLE13=Two Glasses, Joe
TTITLE14=Thanks A Lot
TTITLE15=Waltz Across Texas
EXTD=YEAR: 1991
EXTT0=
EXTT1=
EXTT2=
EXTT3=
EXTT4=
EXTT5=
EXTT6=
EXTT7=
EXTT8=
EXTT9=
EXTT10=
EXTT11=
EXTT12=
EXTT13=
EXTT14=
EXTT15=
PLAYORDER=
